<?xml version="1.0" encoding="UTF-8"?>
<svg id="Layer_1" xmlns="http://www.w3.org/2000/svg" version="1.1" viewBox="0 0 427.48 108.42">
  <!-- Generator: Adobe Illustrator 30.2.1, SVG Export Plug-In . SVG Version: 2.1.1 Build 1)  -->
  <defs>
    <style>
      .st0 {
        fill: #26466b;
      }

      .st1 {
        fill: #fff;
      }
    </style>
  </defs>
  <g>
    <path class="st1" d="M77.84,95.2v-14.12h3.11v14.12h-3.11Z"/>
    <path class="st1" d="M90.99,95.2v-6.02c0-.72-.16-1.27-.48-1.64-.32-.37-.78-.55-1.37-.55s-1.06.18-1.4.55c-.34.37-.51.92-.51,1.64v6.02h-3.07v-10.81h3.07v1.55c.17-.23.37-.45.58-.66.21-.21.44-.4.7-.56.26-.16.54-.29.85-.39.31-.1.66-.14,1.05-.14,1.17,0,2.07.36,2.71,1.07.64.71.96,1.69.96,2.95v7h-3.07Z"/>
    <path class="st1" d="M103.56,95.2v-6.02c0-.72-.16-1.27-.48-1.64-.32-.37-.78-.55-1.37-.55s-1.06.18-1.4.55c-.34.37-.51.92-.51,1.64v6.02h-3.07v-10.81h3.07v1.55c.17-.23.37-.45.58-.66s.44-.4.7-.56c.26-.16.54-.29.85-.39.31-.1.66-.14,1.05-.14,1.17,0,2.07.36,2.71,1.07.64.71.96,1.69.96,2.95v7h-3.07Z"/>
    <path class="st1" d="M120.02,92c-.3.68-.71,1.27-1.23,1.79s-1.14.91-1.86,1.21c-.71.3-1.49.44-2.34.44s-1.61-.15-2.32-.43c-.71-.29-1.33-.69-1.85-1.19s-.92-1.1-1.22-1.78-.44-1.41-.44-2.19v-.04c0-.78.15-1.51.44-2.19.3-.68.71-1.27,1.23-1.78.52-.51,1.14-.91,1.86-1.21s1.49-.44,2.34-.44,1.61.14,2.32.43c.71.29,1.33.69,1.85,1.19s.92,1.1,1.22,1.78.44,1.41.44,2.19v.04c0,.78-.15,1.51-.44,2.19ZM117.44,89.81c0-.4-.07-.78-.2-1.14-.13-.36-.33-.67-.58-.95-.26-.28-.56-.49-.91-.66s-.73-.24-1.15-.24c-.44,0-.84.08-1.18.23-.34.15-.63.37-.88.63-.24.27-.43.58-.56.94-.13.36-.19.74-.19,1.14v.04c0,.4.07.78.2,1.14.13.36.33.67.59.95.26.28.55.49.9.66s.73.24,1.16.24.84-.08,1.18-.23c.34-.15.64-.37.88-.64.24-.27.43-.58.55-.94.13-.36.19-.74.19-1.14v-.04Z"/>
    <path class="st1" d="M128.76,95.28h-2.78l-4.26-10.89h3.25l2.42,7.24,2.44-7.24h3.19l-4.26,10.89Z"/>
    <path class="st1" d="M141.13,95.2v-1.17c-.38.42-.83.75-1.35,1-.53.25-1.16.37-1.92.37-.51,0-.99-.07-1.44-.21-.45-.14-.84-.35-1.18-.63-.34-.28-.6-.63-.8-1.04s-.29-.88-.29-1.42v-.04c0-.59.11-1.1.32-1.53s.51-.79.9-1.07c.38-.28.84-.49,1.37-.64.53-.14,1.12-.21,1.77-.21.55,0,1.03.04,1.44.12.41.08.81.19,1.2.32v-.18c0-.65-.2-1.14-.58-1.47-.39-.34-.97-.5-1.73-.5-.59,0-1.11.05-1.56.15-.45.1-.93.25-1.42.43l-.77-2.34c.59-.26,1.21-.46,1.86-.63.65-.16,1.43-.24,2.34-.24,1.68,0,2.91.41,3.67,1.23.77.82,1.15,1.96,1.15,3.43v6.27h-2.97ZM141.19,90.84c-.27-.12-.57-.22-.9-.29-.33-.07-.68-.11-1.06-.11-.66,0-1.18.13-1.55.38-.38.26-.57.63-.57,1.11v.04c0,.42.15.74.46.97.31.23.71.34,1.21.34.73,0,1.31-.17,1.74-.52s.66-.81.66-1.37v-.54Z"/>
    <path class="st1" d="M151.74,95.21c-.39.11-.84.17-1.35.17-.47,0-.9-.05-1.28-.15s-.71-.28-.99-.53c-.28-.26-.49-.59-.65-1-.16-.41-.23-.93-.23-1.56v-5.12h-1.29v-2.62h1.29v-2.76h3.07v2.76h2.54v2.62h-2.54v4.62c0,.7.33,1.05.99,1.05.54,0,1.04-.13,1.51-.38v2.46c-.32.19-.68.34-1.07.45Z"/>
    <path class="st1" d="M155.17,83.2v-2.72h3.23v2.72h-3.23ZM155.25,95.2v-10.81h3.07v10.81h-3.07Z"/>
    <path class="st1" d="M168.04,95.2v-6.02c0-.72-.16-1.27-.48-1.64-.32-.37-.78-.55-1.37-.55s-1.06.18-1.4.55c-.34.37-.51.92-.51,1.64v6.02h-3.07v-10.81h3.07v1.55c.17-.23.37-.45.58-.66s.44-.4.7-.56c.26-.16.54-.29.85-.39.31-.1.66-.14,1.05-.14,1.17,0,2.07.36,2.71,1.07.64.71.96,1.69.96,2.95v7h-3.07Z"/>
    <path class="st1" d="M184.27,95.37c-.25.72-.63,1.31-1.13,1.77-.5.46-1.13.79-1.89,1.01-.75.21-1.63.32-2.64.32-.89,0-1.73-.1-2.54-.29-.81-.2-1.55-.47-2.24-.84l1.05-2.3c.57.31,1.13.55,1.7.73s1.22.26,1.95.26c1.05,0,1.83-.25,2.33-.75.5-.5.76-1.23.76-2.2v-.52c-.46.55-.96.98-1.49,1.29-.54.31-1.22.46-2.04.46-.63,0-1.24-.11-1.82-.33-.58-.22-1.09-.55-1.53-.98s-.8-.96-1.06-1.58c-.26-.63-.39-1.34-.39-2.15v-.04c0-.81.13-1.52.4-2.15.27-.63.63-1.15,1.07-1.58.44-.43.95-.76,1.53-.98.58-.22,1.18-.33,1.8-.33.83,0,1.52.16,2.06.46s1.02.69,1.43,1.15v-1.41h3.07v8.37c0,1.02-.12,1.89-.37,2.61ZM181.62,89.23c0-.36-.07-.7-.2-1.01-.13-.31-.32-.58-.56-.8-.24-.22-.51-.39-.84-.51-.32-.12-.67-.18-1.05-.18s-.72.06-1.04.18c-.32.12-.59.29-.83.51-.24.22-.42.49-.56.8s-.2.65-.2,1.01v.04c0,.75.25,1.36.75,1.82.5.46,1.12.69,1.88.69.38,0,.73-.06,1.05-.18.32-.12.6-.29.84-.51.24-.22.42-.49.56-.8.13-.31.2-.65.2-1.01v-.04Z"/>
    <path class="st1" d="M201.06,93.48c-.21.44-.5.8-.88,1.08-.38.28-.82.49-1.32.63-.5.14-1.05.21-1.62.21-.77,0-1.55-.13-2.35-.39-.8-.26-1.56-.68-2.29-1.24l1.31-2.02c.59.43,1.18.75,1.77.97.59.21,1.13.32,1.64.32.44,0,.77-.07.98-.22.21-.15.31-.34.31-.59v-.04c0-.16-.06-.3-.18-.42s-.29-.23-.49-.31c-.21-.09-.45-.17-.72-.25s-.55-.17-.85-.26c-.38-.11-.76-.24-1.14-.39-.38-.16-.73-.36-1.04-.61-.31-.25-.56-.56-.76-.92-.19-.36-.29-.81-.29-1.33v-.04c0-.55.1-1.04.31-1.46.21-.42.49-.78.85-1.08.36-.3.77-.52,1.25-.67.48-.15.99-.22,1.54-.22.69,0,1.38.11,2.09.33.71.22,1.36.53,1.95.92l-1.17,2.12c-.54-.31-1.06-.55-1.57-.74-.51-.18-.96-.27-1.35-.27s-.66.07-.85.21c-.19.14-.28.32-.28.53v.04c0,.15.06.28.18.39.12.11.28.22.48.32s.43.2.7.29c.26.09.54.19.84.28.38.12.76.27,1.15.43.39.17.74.37,1.05.62s.57.54.77.89c.2.35.3.77.3,1.27v.04c0,.61-.1,1.13-.31,1.56Z"/>
    <path class="st1" d="M211.3,94.89c-.67.37-1.55.55-2.62.55-.81,0-1.56-.15-2.25-.44-.69-.3-1.29-.7-1.79-1.2-.5-.5-.89-1.1-1.17-1.78-.28-.68-.42-1.4-.42-2.17v-.04c0-.77.14-1.49.42-2.18.28-.69.67-1.28,1.17-1.8.5-.51,1.09-.91,1.79-1.21.69-.3,1.46-.44,2.29-.44,1.02,0,1.87.16,2.54.48.67.32,1.26.77,1.78,1.33l-1.88,2.02c-.35-.36-.71-.65-1.08-.87-.37-.21-.83-.32-1.38-.32-.39,0-.74.08-1.06.23-.32.15-.59.37-.83.63-.24.27-.42.58-.54.94-.13.36-.19.74-.19,1.14v.04c0,.42.06.81.19,1.17.13.36.31.68.55.95.24.27.53.48.87.64.34.16.71.23,1.13.23.51,0,.96-.1,1.34-.31.38-.21.76-.49,1.14-.84l1.8,1.82c-.52.58-1.12,1.05-1.8,1.42Z"/>
    <path class="st1" d="M215.15,83.2v-2.72h3.23v2.72h-3.23ZM215.23,95.2v-10.81h3.07v10.81h-3.07Z"/>
    <path class="st1" d="M231.26,90.48c0,.11-.02.24-.03.38h-7.53c.15.7.45,1.23.92,1.58.46.36,1.04.53,1.73.53.51,0,.97-.09,1.37-.26.4-.17.82-.46,1.25-.85l1.76,1.55c-.51.63-1.13,1.13-1.86,1.48-.73.36-1.58.53-2.56.53-.81,0-1.56-.13-2.25-.4-.69-.27-1.29-.65-1.8-1.15-.5-.5-.9-1.09-1.18-1.77-.28-.68-.42-1.44-.42-2.27v-.04c0-.77.13-1.49.39-2.18.26-.69.63-1.28,1.1-1.8s1.03-.91,1.68-1.21c.65-.3,1.37-.44,2.17-.44.9,0,1.68.16,2.34.48.66.32,1.21.76,1.64,1.3.44.54.76,1.17.97,1.88s.31,1.44.31,2.21v.04c0,.15,0,.28,0,.38ZM227.56,87.28c-.39-.42-.91-.64-1.55-.64s-1.17.21-1.56.63c-.4.42-.66.98-.78,1.67h4.62c-.09-.69-.34-1.24-.73-1.66Z"/>
    <path class="st1" d="M240.39,95.2v-6.02c0-.72-.16-1.27-.48-1.64-.32-.37-.78-.55-1.37-.55s-1.06.18-1.4.55c-.34.37-.51.92-.51,1.64v6.02h-3.07v-10.81h3.07v1.55c.17-.23.37-.45.58-.66s.44-.4.7-.56c.26-.16.54-.29.85-.39.31-.1.66-.14,1.05-.14,1.17,0,2.07.36,2.71,1.07.64.71.96,1.69.96,2.95v7h-3.07Z"/>
    <path class="st1" d="M253.85,94.89c-.67.37-1.55.55-2.62.55-.81,0-1.56-.15-2.25-.44-.69-.3-1.29-.7-1.78-1.2-.5-.5-.89-1.1-1.17-1.78-.28-.68-.42-1.4-.42-2.17v-.04c0-.77.14-1.49.42-2.18.28-.69.67-1.28,1.17-1.8.5-.51,1.09-.91,1.78-1.21.69-.3,1.46-.44,2.29-.44,1.02,0,1.87.16,2.54.48.67.32,1.26.77,1.78,1.33l-1.88,2.02c-.35-.36-.71-.65-1.08-.87-.37-.21-.83-.32-1.38-.32-.39,0-.74.08-1.06.23-.32.15-.59.37-.83.63-.24.27-.42.58-.54.94-.13.36-.19.74-.19,1.14v.04c0,.42.06.81.19,1.17.13.36.31.68.55.95.24.27.53.48.87.64.34.16.71.23,1.13.23.51,0,.96-.1,1.34-.31.38-.21.76-.49,1.14-.84l1.8,1.82c-.52.58-1.12,1.05-1.8,1.42Z"/>
    <path class="st1" d="M267.72,90.48c0,.11-.02.24-.03.38h-7.53c.15.7.45,1.23.92,1.58.46.36,1.04.53,1.73.53.51,0,.97-.09,1.37-.26s.82-.46,1.25-.85l1.76,1.55c-.51.63-1.13,1.13-1.86,1.48s-1.58.53-2.56.53c-.81,0-1.56-.13-2.25-.4-.69-.27-1.29-.65-1.8-1.15-.5-.5-.9-1.09-1.18-1.77-.28-.68-.42-1.44-.42-2.27v-.04c0-.77.13-1.49.39-2.18.26-.69.63-1.28,1.1-1.8s1.03-.91,1.68-1.21c.65-.3,1.38-.44,2.17-.44.9,0,1.68.16,2.34.48.66.32,1.21.76,1.64,1.3.44.54.76,1.17.97,1.88.21.71.31,1.44.31,2.21v.04c0,.15,0,.28,0,.38ZM264.02,87.28c-.39-.42-.91-.64-1.55-.64s-1.17.21-1.56.63-.66.98-.78,1.67h4.62c-.09-.69-.34-1.24-.73-1.66Z"/>
    <path class="st1" d="M271.12,95.2h-1.23v-3.23h3.25v2.72c0,1.33-.32,2.29-.97,2.88-.65.58-1.57.88-2.76.9l-.26-1.27c1.43-.15,2.08-.81,1.98-2Z"/>
    <path class="st1" d="M289.56,94.89c-.67.37-1.55.55-2.62.55-.81,0-1.56-.15-2.25-.44-.69-.3-1.29-.7-1.79-1.2-.5-.5-.89-1.1-1.17-1.78-.28-.68-.42-1.4-.42-2.17v-.04c0-.77.14-1.49.42-2.18.28-.69.67-1.28,1.17-1.8.5-.51,1.09-.91,1.79-1.21.69-.3,1.46-.44,2.29-.44,1.02,0,1.87.16,2.54.48.67.32,1.26.77,1.78,1.33l-1.88,2.02c-.35-.36-.71-.65-1.08-.87-.37-.21-.83-.32-1.38-.32-.39,0-.74.08-1.06.23-.32.15-.59.37-.83.63-.24.27-.42.58-.54.94-.13.36-.19.74-.19,1.14v.04c0,.42.06.81.19,1.17.13.36.31.68.55.95.24.27.53.48.87.64.34.16.71.23,1.13.23.51,0,.96-.1,1.34-.31.38-.21.76-.49,1.14-.84l1.8,1.82c-.52.58-1.12,1.05-1.8,1.42Z"/>
    <path class="st1" d="M299.69,95.2v-1.17c-.38.42-.83.75-1.35,1-.52.25-1.16.37-1.92.37-.51,0-.99-.07-1.44-.21-.45-.14-.84-.35-1.18-.63-.34-.28-.6-.63-.8-1.04s-.29-.88-.29-1.42v-.04c0-.59.11-1.1.32-1.53.21-.43.51-.79.9-1.07.38-.28.84-.49,1.37-.64.53-.14,1.12-.21,1.77-.21.55,0,1.03.04,1.44.12.41.08.81.19,1.2.32v-.18c0-.65-.2-1.14-.58-1.47-.39-.34-.97-.5-1.74-.5-.59,0-1.11.05-1.56.15-.45.1-.92.25-1.42.43l-.77-2.34c.59-.26,1.21-.46,1.86-.63.65-.16,1.42-.24,2.34-.24,1.68,0,2.9.41,3.67,1.23.77.82,1.15,1.96,1.15,3.43v6.27h-2.97ZM299.75,90.84c-.27-.12-.57-.22-.9-.29-.33-.07-.68-.11-1.06-.11-.66,0-1.18.13-1.55.38-.38.26-.57.63-.57,1.11v.04c0,.42.15.74.46.97.31.23.71.34,1.21.34.73,0,1.31-.17,1.75-.52.44-.35.66-.81.66-1.37v-.54Z"/>
    <path class="st1" d="M311.65,87.39c-1.02,0-1.83.31-2.41.93s-.88,1.58-.88,2.89v3.99h-3.07v-10.81h3.07v2.18c.31-.74.73-1.33,1.27-1.78.54-.44,1.26-.65,2.18-.61v3.21h-.16Z"/>
    <path class="st1" d="M313.79,83.2v-2.72h3.23v2.72h-3.23ZM313.87,95.2v-10.81h3.07v10.81h-3.07Z"/>
    <path class="st1" d="M326.66,95.2v-6.02c0-.72-.16-1.27-.48-1.64-.32-.37-.78-.55-1.37-.55s-1.06.18-1.4.55c-.34.37-.51.92-.51,1.64v6.02h-3.07v-10.81h3.07v1.55c.17-.23.37-.45.58-.66.21-.21.44-.4.7-.56.26-.16.54-.29.85-.39.31-.1.66-.14,1.05-.14,1.17,0,2.07.36,2.71,1.07.64.71.96,1.69.96,2.95v7h-3.07Z"/>
    <path class="st1" d="M342.89,95.37c-.25.72-.63,1.31-1.13,1.77-.5.46-1.13.79-1.89,1.01-.75.21-1.63.32-2.64.32-.89,0-1.73-.1-2.54-.29-.81-.2-1.55-.47-2.24-.84l1.05-2.3c.57.31,1.13.55,1.7.73s1.22.26,1.95.26c1.05,0,1.83-.25,2.33-.75.5-.5.76-1.23.76-2.2v-.52c-.46.55-.95.98-1.49,1.29s-1.22.46-2.04.46c-.63,0-1.24-.11-1.82-.33-.58-.22-1.09-.55-1.53-.98s-.8-.96-1.06-1.58c-.26-.63-.39-1.34-.39-2.15v-.04c0-.81.13-1.52.4-2.15.27-.63.63-1.15,1.07-1.58.44-.43.95-.76,1.53-.98.58-.22,1.18-.33,1.8-.33.83,0,1.52.16,2.06.46.54.31,1.01.69,1.43,1.15v-1.41h3.07v8.37c0,1.02-.12,1.89-.37,2.61ZM340.24,89.23c0-.36-.07-.7-.2-1.01s-.32-.58-.55-.8c-.24-.22-.52-.39-.84-.51-.32-.12-.67-.18-1.05-.18s-.72.06-1.04.18c-.32.12-.59.29-.83.51-.24.22-.42.49-.55.8-.14.31-.2.65-.2,1.01v.04c0,.75.25,1.36.75,1.82.5.46,1.12.69,1.88.69.38,0,.73-.06,1.05-.18.32-.12.6-.29.84-.51.23-.22.42-.49.55-.8s.2-.65.2-1.01v-.04Z"/>
    <path class="st1" d="M357.45,82.98c-.21-.05-.46-.07-.73-.07-.74,0-1.11.39-1.11,1.17v.42h2.48v2.5h-2.44v8.19h-3.07v-8.19h-1.27v-2.52h1.27v-.69c0-1.2.29-2.08.86-2.63.57-.56,1.4-.84,2.49-.84.48,0,.9.03,1.24.08.34.05.66.13.94.22v2.54c-.23-.08-.45-.14-.67-.19Z"/>
    <path class="st1" d="M370.5,92c-.3.68-.71,1.27-1.23,1.79-.52.51-1.14.91-1.86,1.21-.71.3-1.49.44-2.34.44s-1.61-.15-2.32-.43c-.71-.29-1.33-.69-1.85-1.19s-.92-1.1-1.22-1.78-.44-1.41-.44-2.19v-.04c0-.78.15-1.51.44-2.19.3-.68.71-1.27,1.23-1.78.53-.51,1.14-.91,1.86-1.21s1.49-.44,2.34-.44,1.61.14,2.32.43c.71.29,1.33.69,1.85,1.19s.92,1.1,1.22,1.78.44,1.41.44,2.19v.04c0,.78-.15,1.51-.44,2.19ZM367.92,89.81c0-.4-.07-.78-.2-1.14-.13-.36-.33-.67-.58-.95-.26-.28-.56-.49-.91-.66-.35-.16-.73-.24-1.15-.24-.44,0-.84.08-1.18.23-.34.15-.64.37-.88.63-.24.27-.43.58-.55.94-.13.36-.19.74-.19,1.14v.04c0,.4.07.78.2,1.14.13.36.33.67.58.95.26.28.56.49.9.66s.73.24,1.16.24.84-.08,1.18-.23c.34-.15.64-.37.88-.64.24-.27.43-.58.55-.94.13-.36.19-.74.19-1.14v-.04Z"/>
    <path class="st1" d="M379.52,87.39c-1.02,0-1.83.31-2.41.93s-.88,1.58-.88,2.89v3.99h-3.07v-10.81h3.07v2.18c.31-.74.73-1.33,1.27-1.78.54-.44,1.26-.65,2.18-.61v3.21h-.16Z"/>
    <path class="st1" d="M387.79,95.2v-14.73h3.07v14.73h-3.07Z"/>
    <path class="st1" d="M393.81,83.2v-2.72h3.23v2.72h-3.23ZM393.89,95.2v-10.81h3.07v10.81h-3.07Z"/>
    <path class="st1" d="M405.23,82.98c-.21-.05-.46-.07-.73-.07-.74,0-1.11.39-1.11,1.17v.42h2.48v2.5h-2.44v8.19h-3.07v-8.19h-1.27v-2.52h1.27v-.69c0-1.2.29-2.08.86-2.63.57-.56,1.4-.84,2.49-.84.48,0,.9.03,1.24.08.34.05.66.13.94.22v2.54c-.23-.08-.45-.14-.67-.19Z"/>
    <path class="st1" d="M417.62,90.48c0,.11-.02.24-.03.38h-7.53c.15.7.45,1.23.92,1.58.46.36,1.04.53,1.73.53.51,0,.97-.09,1.37-.26s.82-.46,1.25-.85l1.76,1.55c-.51.63-1.13,1.13-1.86,1.48-.73.36-1.58.53-2.56.53-.81,0-1.56-.13-2.25-.4-.69-.27-1.29-.65-1.8-1.15-.5-.5-.9-1.09-1.18-1.77-.28-.68-.42-1.44-.42-2.27v-.04c0-.77.13-1.49.39-2.18.26-.69.63-1.28,1.1-1.8s1.03-.91,1.68-1.21c.65-.3,1.37-.44,2.17-.44.9,0,1.68.16,2.34.48.66.32,1.21.76,1.64,1.3.44.54.76,1.17.97,1.88.21.71.31,1.44.31,2.21v.04c0,.15,0,.28,0,.38ZM413.92,87.28c-.39-.42-.91-.64-1.55-.64s-1.17.21-1.56.63c-.4.42-.66.98-.78,1.67h4.62c-.09-.69-.34-1.24-.73-1.66Z"/>
  </g>
  <g>
    <g>
      <polygon class="st1" points="418.43 72.16 253.18 72.16 234.9 25.87 400.15 25.87 418.43 72.16"/>
      <g>
        <g>
          <path class="st1" d="M79.29,31.88c-1.17,0-2.16,1.01-2.16,2.21v31.39c0,1.2.99,2.21,2.16,2.21s2.21-.99,2.21-2.21v-31.39c0-1.22-.99-2.21-2.21-2.21Z"/>
          <path class="st1" d="M139.53,31.88c-1.19,0-2.16.97-2.16,2.16v25.69l-20.79-26.52c-.44-.56-.97-1.08-1.8-1.2-.21-.07-.43-.12-.66-.12-.35,0-.67.09-.96.23-.83.3-1.44,1.1-1.44,2.02v25.28l-20.55-26.21c-.5-.64-1.11-1.23-2.16-1.23h-.55c-1.17,0-2.16.99-2.16,2.16v31.39c0,1.17.96,2.16,2.11,2.16s2.16-.97,2.16-2.16v-26.38l21.25,27.17s.08.09.13.14c.35.72,1.07,1.23,1.88,1.23.25,0,.49-.05.71-.13.98-.15,1.69-.96,1.69-2.03v-26.07l21,26.86c.57.66,1.23,1.27,2.2,1.27h.2c1.14,0,2.01-.88,2.01-2.06v-31.49c0-1.17-.96-2.16-2.11-2.16Z"/>
          <path class="st1" d="M163.6,31.53c-10.12,0-18.05,8.02-18.05,18.25v.1c0,10.35,7.72,18.15,17.95,18.15s18.05-8.02,18.05-18.25v-.1c0-10.35-7.72-18.15-17.95-18.15ZM177.04,49.78v.1c0,8.03-5.78,14.09-13.44,14.09s-13.54-6.23-13.54-14.19v-.1c0-8.03,5.78-14.09,13.44-14.09s13.54,6.23,13.54,14.19Z"/>
          <path class="st1" d="M213.74,33.98c0-1.14-.99-2.11-2.16-2.11-1.02,0-1.77.78-2.14,1.53l-11.91,28.52-11.86-28.42c-.43-1.03-1.24-1.63-2.24-1.63-1.17,0-2.21,1.01-2.21,2.16,0,.39.06.67.22.98l13.45,31.04c.47,1.16,1.33,1.77,2.49,1.77h.2c1.14,0,1.95-.58,2.49-1.77l13.5-31.19c.11-.28.17-.56.17-.88Z"/>
          <path class="st1" d="M241.87,64.48l-14.15-30.88c-.5-1.23-1.41-1.88-2.64-1.88h-.2c-1.24,0-2.11.61-2.69,1.87l-14.15,30.93c-.18.36-.27.74-.27,1.14,0,1.11.9,2.01,2.01,2.01.96,0,1.7-.52,2.09-1.47l3.58-7.99h18.86l3.58,7.89c.44,1,1.22,1.57,2.14,1.57,1.16,0,2.11-.94,2.11-2.11,0-.31-.09-.67-.27-1.09ZM232.58,54.2h-15.38l7.69-17.1,7.69,17.1Z"/>
        </g>
        <path class="st0" d="M260.29,35.18h-10.5c-.61,0-1.13-.52-1.13-1.13s.52-1.12,1.13-1.12h23.44c.61,0,1.13.52,1.13,1.12s-.52,1.13-1.13,1.13h-10.5v29.54c0,.66-.56,1.22-1.22,1.22s-1.22-.56-1.22-1.22v-29.54Z"/>
        <path class="st0" d="M276.89,34.14c0-.66.56-1.22,1.22-1.22h12.57c4.03,0,7.27,1.27,9.24,3.24,1.55,1.55,2.48,3.75,2.48,6.09v.09c0,5.49-4.08,8.63-9.61,9.38l9.33,12.1c.24.28.38.56.38.84,0,.66-.61,1.27-1.27,1.27-.47,0-.8-.28-1.08-.66l-10.08-13.13h-10.74v12.57c0,.66-.56,1.22-1.22,1.22s-1.22-.56-1.22-1.22v-30.57ZM290.4,49.94c5.49,0,9.57-2.77,9.57-7.5v-.09c0-4.41-3.47-7.17-9.43-7.17h-11.21v14.77h11.07Z"/>
        <path class="st0" d="M307.38,33.96c0-.66.56-1.22,1.22-1.22s1.22.56,1.22,1.22v30.76c0,.66-.56,1.22-1.22,1.22s-1.22-.56-1.22-1.22v-30.76Z"/>
        <path class="st0" d="M314.08,64.15l14.02-30.38c.33-.7.8-1.17,1.64-1.17h.09c.84,0,1.31.47,1.64,1.17l13.97,30.29c.14.28.19.52.19.75,0,.61-.52,1.13-1.17,1.13-.56,0-.98-.42-1.22-.94l-3.84-8.44h-19.36l-3.84,8.49c-.24.56-.61.89-1.17.89-.61,0-1.13-.47-1.13-1.03,0-.19.05-.47.19-.75ZM338.37,54.35l-8.63-18.99-8.67,18.99h17.3Z"/>
        <path class="st0" d="M349.44,33.96c0-.66.56-1.22,1.22-1.22s1.22.56,1.22,1.22v29.54h18.33c.61,0,1.13.52,1.13,1.12s-.52,1.13-1.13,1.13h-19.55c-.66,0-1.22-.56-1.22-1.22v-30.57Z"/>
        <path class="st0" d="M373.36,61.62c-.24-.19-.47-.52-.47-.94,0-.66.56-1.22,1.22-1.22.33,0,.61.14.8.28,3.28,2.95,6.56,4.27,11.07,4.27,4.92,0,8.3-2.77,8.3-6.52v-.09c0-3.47-1.83-5.49-9.28-6.99-7.88-1.59-11.07-4.27-11.07-9.24v-.09c0-4.88,4.45-8.63,10.55-8.63,4.41,0,7.45,1.12,10.45,3.38.24.19.52.52.52.98,0,.66-.56,1.22-1.22,1.22-.28,0-.56-.09-.8-.28-2.86-2.2-5.72-3.09-9.05-3.09-4.83,0-8.02,2.77-8.02,6.19v.09c0,3.47,1.78,5.58,9.56,7.17,7.6,1.55,10.78,4.27,10.78,9.05v.09c0,5.3-4.55,8.96-10.88,8.96-4.92,0-8.77-1.55-12.47-4.59Z"/>
      </g>
    </g>
    <g>
      <circle class="st1" cx="62.86" cy="71.53" r="2.78"/>
      <circle class="st1" cx="36.69" cy="6.82" r="2.78"/>
      <path class="st1" d="M19,86.59c-1.99,0-3.61,1.62-3.61,3.61s1.62,3.61,3.61,3.61,3.61-1.62,3.61-3.61-1.62-3.61-3.61-3.61Z"/>
      <path class="st1" d="M33.42,60.4l14.94-2.25c.58,1.22,1.81,2.07,3.25,2.07,1.99,0,3.61-1.62,3.61-3.61s-1.62-3.61-3.61-3.61c-.39,0-.76.08-1.11.19l-8.18-11.76c.8-.93,1.29-2.14,1.29-3.46,0-1.43-.57-2.73-1.49-3.68l7.52-10.12c.11.01.23.03.34.03,1.54,0,2.78-1.24,2.78-2.78s-1.25-2.78-2.78-2.78-2.78,1.25-2.78,2.78c0,.65.23,1.24.61,1.72l-7.4,9.96c-.64-.28-1.35-.43-2.1-.43-2.93,0-5.3,2.37-5.3,5.3s2.37,5.3,5.3,5.3c.85,0,1.65-.21,2.36-.56l8.12,11.67c-.39.49-.65,1.07-.74,1.72l-14.94,2.25c-.86-2.75-3.44-4.75-6.47-4.75-3.74,0-6.78,3.04-6.78,6.78,0,1.01.23,1.96.62,2.82l-6.28,5.31c-.57-.37-1.24-.59-1.97-.59-1.99,0-3.61,1.62-3.61,3.61s1.62,3.61,3.61,3.61,3.61-1.62,3.61-3.61c0-.51-.11-.99-.3-1.44l6.1-5.15c1.24,1.35,3.02,2.21,4.99,2.21,1.06,0,2.07-.25,2.97-.69l8.14,11.7c-2.13,1.84-3.49,4.56-3.49,7.6,0,5.54,4.49,10.04,10.04,10.04s10.04-4.49,10.04-10.04-4.49-10.04-10.04-10.04c-1.76,0-3.41.45-4.85,1.25l-8.13-11.69c1.29-1.23,2.1-2.95,2.1-4.87Z"/>
    </g>
  </g>
</svg>