<?xml version="1.0" encoding="UTF-8"?>
<svg id="Layer_1" xmlns="http://www.w3.org/2000/svg" version="1.1" viewBox="0 0 85.62 85.62">
  <!-- Generator: Adobe Illustrator 30.2.1, SVG Export Plug-In . SVG Version: 2.1.1 Build 1)  -->
  <defs>
    <style>
      .st0 {
        fill: #0a3d5c;
        stroke: #fff;
        stroke-miterlimit: 10;
      }

      .st1 {
        fill: #fff;
      }
    </style>
  </defs>
  <circle class="st0" cx="42.81" cy="42.81" r="42.31"/>
  <g>
    <path class="st1" d="M42.81,25.97h0c-5.47,0-9.92,4.46-9.93,9.93,0,5.48,4.46,9.93,9.93,9.93s9.93-4.46,9.93-9.93-4.46-9.93-9.93-9.93ZM42.81,42.23c-3.49,0-6.33-2.84-6.33-6.33,0-3.49,2.85-6.33,6.33-6.33,3.49,0,6.33,2.84,6.33,6.33s-2.84,6.33-6.33,6.33Z"/>
    <path class="st1" d="M42.81,14.73c-11.68,0-21.18,9.5-21.18,21.18,0,14.86,19.09,33.69,19.9,34.48.35.34.81.51,1.27.51s.92-.17,1.27-.51c.81-.79,19.9-19.56,19.9-34.48,0-11.68-9.5-21.18-21.18-21.18ZM60.34,35.9c0,11.29-13.44,26.27-17.53,30.57-4.1-4.3-17.53-19.28-17.53-30.57.01-9.66,7.88-17.52,17.53-17.53,9.66.01,17.52,7.88,17.53,17.53Z"/>
  </g>
</svg>