<?xml version="1.0" encoding="UTF-8"?>
<svg id="Layer_1" xmlns="http://www.w3.org/2000/svg" version="1.1" viewBox="0 0 85.62 85.62">
  <!-- Generator: Adobe Illustrator 30.2.1, SVG Export Plug-In . SVG Version: 2.1.1 Build 1)  -->
  <defs>
    <style>
      .st0 {
        fill: #0a3d5c;
        stroke: #fff;
        stroke-miterlimit: 10;
      }

      .st1 {
        fill: #fff;
      }
    </style>
  </defs>
  <circle class="st0" cx="42.81" cy="42.81" r="42.31"/>
  <g>
    <path class="st1" d="M70.17,46.19v-20.36c0-1.08-.48-2.1-1.31-2.81l-.28-.23h-.03c-.62-.42-1.37-.66-2.13-.66H17.34c-2.07,0-3.75,1.66-3.75,3.69v25.99c.01,2.02,1.69,3.67,3.75,3.67h22.27c.94,7.95,7.83,14.14,16.15,14.14h0c8.96,0,16.25-7.19,16.27-16.01,0-2.68-.67-5.22-1.87-7.44ZM62.13,25.88l-20.25,13.64-20.25-13.64h40.51ZM66.37,27.56v13.95c-2.85-2.42-6.56-3.88-10.6-3.88-1.5,0-2.96.2-4.34.58l-.43-.29,15.38-10.36ZM17.39,27.56l15.38,10.36-15.38,10.36v-20.71ZM18.92,51.77l17.21-11.59,4.68,3.15c.65.44,1.49.44,2.14,0l.97-.65c-2.33,2.44-3.89,5.59-4.31,9.09h-20.69ZM68.95,59.79c-.04,2.71-2.31,4.87-5.06,4.83-2.75-.04-4.95-2.27-4.91-4.98-.84.55-1.83.85-2.85.85-3.14,0-5.69-2.83-5.69-6.31s2.55-6.31,5.69-6.31c1.05,0,2.08.32,2.94.92.21-.54.73-.9,1.32-.9.79,0,1.43.61,1.44,1.39v10.51c0,1.16.96,2.1,2.14,2.1s2.14-.94,2.14-2.1v-6.31c0-5.33-4.05-9.81-9.42-10.44-5.86-.68-11.17,3.43-11.86,9.2-.69,5.76,3.49,10.99,9.35,11.67.76.1,1.3.78,1.22,1.52-.08.77-.77,1.33-1.56,1.26-6.8-.8-11.91-6.47-11.92-13.2,0-7.35,6.04-13.32,13.51-13.33,7.47,0,13.52,5.96,13.52,13.31v6.31Z"/>
    <path class="st1" d="M56.1,50.81c-1.5,0-2.72,1.5-2.72,3.35s1.22,3.35,2.72,3.35,2.72-1.5,2.72-3.35-1.22-3.35-2.72-3.35Z"/>
  </g>
</svg>