<?xml version="1.0" encoding="UTF-8"?>
<svg id="Layer_1" xmlns="http://www.w3.org/2000/svg" version="1.1" viewBox="0 0 85.62 85.62">
  <!-- Generator: Adobe Illustrator 30.2.1, SVG Export Plug-In . SVG Version: 2.1.1 Build 1)  -->
  <defs>
    <style>
      .st0 {
        fill: #0a3d5c;
        stroke: #fff;
        stroke-miterlimit: 10;
      }

      .st1 {
        fill: #fff;
      }
    </style>
  </defs>
  <circle class="st0" cx="42.81" cy="42.81" r="42.31"/>
  <path class="st1" d="M67.85,53.18c-.05-.23-.11-.46-.18-.69-.21-.7-.78-1.26-1.49-1.45l-14.15-3.79c-.72-.19-1.47,0-2.01.5-.97.9-1.76,1.99-2.33,3.19-6.79-2.68-12.13-8.01-14.81-14.81,1.19-.57,2.28-1.37,3.18-2.33.51-.54.7-1.29.51-2.01l-3.79-14.15c-.19-.71-.74-1.28-1.45-1.49-5.69-1.69-11.7,1.57-13.38,7.26-.29.98-.44,2-.44,3.03.03,21.96,17.92,39.84,39.88,39.87,5.93-.02,10.75-4.85,10.73-10.79,0-.79-.09-1.58-.27-2.35ZM29.69,32.76c-.55.13-1.03.46-1.33.94-.3.48-.4,1.05-.28,1.61l.04.16c2.98,9.69,10.54,17.25,20.23,20.23.54.17,1.12.11,1.63-.15.5-.27.87-.71,1.04-1.27l.04-.15c.2-.88.58-1.7,1.12-2.42l11.63,3.11c.38,3.32-1.84,6.44-5.17,7.11-.41.08-.84.13-1.26.13-19.61-.03-35.59-16-35.61-35.61,0-3.58,2.92-6.48,6.5-6.48.26,0,.49.01.74.04l3.11,11.63c-.72.54-1.54.92-2.42,1.12Z"/>
</svg>